<?xml version="1.0" encoding="utf-8"?>
<!-- Generator: Adobe Illustrator 21.0.0, SVG Export Plug-In . SVG Version: 6.00 Build 0)  -->
<svg version="1.1" id="Layer_1" xmlns="http://www.w3.org/2000/svg" xmlns:xlink="http://www.w3.org/1999/xlink" x="0px" y="0px"
	 viewBox="0 0 24 24" style="enable-background:new 0 0 24 24;" xml:space="preserve">
<style type="text/css">
	.st0{fill:none;stroke:#BFBFBF;stroke-miterlimit:10;}
	.st1{fill:#BFBFBF;}
	.st2{fill-rule:evenodd;clip-rule:evenodd;fill:none;}
</style>
<g>
	<g>
		<g>
			<path class="st0" d="M4.5,10v4.4c0,4.2,3.4,7.6,7.5,7.6c4.1,0,7.5-3.4,7.5-7.6V10H4.5z M16.5,6.8c0-2.6-2-4.8-4.5-4.8
				C9.5,2,7.5,4.1,7.5,6.8V10h9V6.8z"/>
		</g>
	</g>
	<path class="st1" d="M12,17.7L12,17.7c-0.3,0-0.5-0.2-0.6-0.5l-0.7-2.6C10.5,13.8,11.2,13,12,13l0,0c0.8,0,1.5,0.8,1.3,1.7
		l-0.7,2.6C12.5,17.5,12.3,17.7,12,17.7z"/>
</g>
<rect id="_x3C_Slice_x3E__1_" class="st2" width="24" height="24"/>
</svg>
