<?xml version="1.0" encoding="utf-8"?>
<!-- Generator: Adobe Illustrator 21.0.0, SVG Export Plug-In . SVG Version: 6.00 Build 0)  -->
<svg version="1.1" id="Layer_1" xmlns="http://www.w3.org/2000/svg" xmlns:xlink="http://www.w3.org/1999/xlink" x="0px" y="0px"
	 viewBox="0 0 284 129" style="enable-background:new 0 0 284 129;" xml:space="preserve">
<style type="text/css">
	.st0{fill:#F11438;}
	.st1{opacity:0.5;}
	.st2{fill:#575757;}
</style>
<g>
	<g>
		<polygon class="st0" points="56.6,35.5 50.6,35.5 47.8,39.2 55.4,39.2 		"/>
		<polygon class="st0" points="58.3,30 54.9,30 52.1,33.6 57.2,33.6 		"/>
		<polygon class="st0" points="54.4,42.2 45.5,42.2 42,46.8 53,46.8 		"/>
		<polygon class="st0" points="58.8,28.6 60.8,22.3 56,28.6 		"/>
		<polygon class="st0" points="51.6,51.2 38.6,51.2 34.8,56.1 50,56.1 		"/>
		<polygon class="st0" points="33.8,93.1 60.4,62.6 29.8,62.6 21.2,73.9 37.1,73.9 		"/>
	</g>
	<g class="st1">
		<path class="st2" d="M131.6,106.2c-0.1-0.2-0.3-0.5-0.4-0.6c-0.1-0.2-0.2-0.3-0.4-0.5c-0.1-0.1-0.3-0.3-0.4-0.4
			c-0.1-0.1-0.3-0.2-0.5-0.3v0c0.4-0.1,0.7-0.2,1-0.4c0.3-0.2,0.6-0.4,0.8-0.6c0.2-0.3,0.4-0.5,0.5-0.9c0.1-0.3,0.2-0.7,0.2-1.1
			c0-0.5-0.1-0.9-0.3-1.3c-0.2-0.4-0.4-0.7-0.7-0.9c-0.3-0.2-0.7-0.4-1.1-0.5c-0.4-0.1-0.8-0.2-1.3-0.2h-3.3v11h1.3v-4.7h1.1
			c0.2,0,0.5,0,0.6,0.1c0.2,0.1,0.4,0.2,0.5,0.3c0.2,0.1,0.3,0.3,0.5,0.5c0.2,0.2,0.3,0.4,0.5,0.7l1.8,3.1h1.5L131.6,106.2z
			 M129.7,103.5c-0.3,0.1-0.6,0.1-0.9,0.1h-1.7v-4h1.8c0.7,0,1.3,0.2,1.7,0.5c0.4,0.3,0.6,0.8,0.6,1.4c0,0.3-0.1,0.6-0.2,0.9
			c-0.1,0.3-0.3,0.5-0.5,0.7C130.2,103.3,130,103.4,129.7,103.5z"/>
		<path class="st2" d="M135.9,98.3c-0.2-0.2-0.4-0.2-0.6-0.2c-0.2,0-0.4,0.1-0.6,0.2c-0.2,0.2-0.2,0.4-0.2,0.6
			c0,0.2,0.1,0.4,0.2,0.6c0.2,0.2,0.3,0.2,0.6,0.2c0.2,0,0.4-0.1,0.6-0.2c0.2-0.2,0.2-0.3,0.2-0.6C136.2,98.6,136.1,98.4,135.9,98.3
			z"/>
		<rect x="134.7" y="101.7" class="st2" width="1.3" height="7.8"/>
		<path class="st2" d="M142.3,106c-0.2-0.2-0.4-0.3-0.7-0.5c-0.3-0.1-0.6-0.3-0.9-0.4c-0.3-0.1-0.5-0.2-0.7-0.3s-0.4-0.2-0.5-0.3
			c-0.1-0.1-0.3-0.2-0.3-0.4c-0.1-0.1-0.1-0.3-0.1-0.5c0-0.2,0-0.3,0.1-0.4s0.2-0.3,0.3-0.3c0.1-0.1,0.3-0.2,0.5-0.2
			c0.2-0.1,0.4-0.1,0.6-0.1c0.8,0,1.4,0.2,2,0.6v-1.3c-0.5-0.2-1.1-0.4-1.8-0.4c-0.4,0-0.8,0-1.1,0.1c-0.4,0.1-0.7,0.2-1,0.4
			c-0.3,0.2-0.5,0.4-0.7,0.7s-0.3,0.6-0.3,1c0,0.3,0,0.6,0.1,0.8c0.1,0.2,0.2,0.4,0.4,0.6c0.2,0.2,0.4,0.3,0.7,0.5
			c0.3,0.1,0.6,0.3,0.9,0.4c0.3,0.1,0.5,0.2,0.7,0.3c0.2,0.1,0.4,0.2,0.6,0.3c0.2,0.1,0.3,0.2,0.4,0.4c0.1,0.1,0.1,0.3,0.1,0.5
			c0,0.7-0.6,1.1-1.7,1.1c-0.8,0-1.6-0.3-2.3-0.8v1.3c0.6,0.3,1.3,0.5,2.1,0.5c0.4,0,0.8,0,1.2-0.1c0.4-0.1,0.7-0.2,1-0.4
			c0.3-0.2,0.5-0.4,0.7-0.7c0.2-0.3,0.3-0.6,0.3-1c0-0.3-0.1-0.6-0.2-0.8C142.6,106.4,142.5,106.2,142.3,106z"/>
		<path class="st2" d="M150.8,105.3c0-1.2-0.3-2.1-0.8-2.8c-0.6-0.7-1.4-1-2.4-1c-1,0-1.9,0.4-2.6,1.2c-0.7,0.8-1,1.8-1,3
			c0,1.3,0.3,2.3,0.9,3c0.6,0.7,1.5,1.1,2.6,1.1c1.1,0,2-0.3,2.7-0.8v-1.2c-0.7,0.6-1.6,0.9-2.4,0.9c-0.8,0-1.4-0.2-1.9-0.7
			c-0.4-0.5-0.7-1.1-0.7-2h5.5V105.3z M145.3,104.8c0.1-0.7,0.4-1.2,0.8-1.7c0.4-0.4,0.9-0.6,1.5-0.6c0.6,0,1.1,0.2,1.4,0.6
			c0.3,0.4,0.5,1,0.5,1.7H145.3z"/>
		<path class="st2" d="M160.8,98.5h-1.3l-4.2,11h1.4l1.1-3.1h4.7l1.2,3.1h1.4L160.8,98.5z M158.2,105.3l1.7-4.7
			c0.1-0.2,0.1-0.4,0.2-0.7h0c0.1,0.3,0.1,0.6,0.2,0.7l1.7,4.7H158.2z"/>
		<path class="st2" d="M172.6,102.5c-0.6-0.7-1.4-1.1-2.4-1.1c-1.2,0-2.1,0.5-2.7,1.6h0v-5.1h-1.3v11.6h1.3v-1.1h0
			c0.5,0.9,1.3,1.3,2.4,1.3c1.1,0,2-0.4,2.6-1.2c0.6-0.8,1-1.8,1-3.1C173.4,104.2,173.1,103.2,172.6,102.5z M171.5,107.8
			c-0.4,0.6-1,0.9-1.8,0.9c-0.6,0-1.2-0.2-1.6-0.7c-0.4-0.5-0.6-1-0.6-1.6v-1.1c0-0.8,0.2-1.4,0.7-1.9c0.4-0.5,1-0.8,1.8-0.8
			c0.7,0,1.2,0.2,1.6,0.7c0.4,0.5,0.6,1.2,0.6,2.1C172.1,106.4,171.9,107.2,171.5,107.8z"/>
		<path class="st2" d="M181.3,102.6c-0.7-0.7-1.6-1.1-2.7-1.1c-1.2,0-2.2,0.4-2.9,1.1c-0.7,0.7-1.1,1.8-1.1,3.1c0,1.2,0.3,2.2,1,2.9
			c0.7,0.7,1.6,1.1,2.8,1.1c1.2,0,2.1-0.4,2.8-1.1s1.1-1.8,1.1-3C182.3,104.3,182,103.3,181.3,102.6z M180.3,107.9
			c-0.4,0.5-1.1,0.8-1.9,0.8c-0.8,0-1.4-0.3-1.9-0.8c-0.5-0.5-0.7-1.3-0.7-2.2c0-1,0.2-1.7,0.7-2.3c0.5-0.5,1.1-0.8,1.9-0.8
			c0.8,0,1.4,0.3,1.9,0.8c0.4,0.5,0.7,1.3,0.7,2.3C181,106.6,180.8,107.3,180.3,107.9z"/>
		<path class="st2" d="M186.5,108.5L186.5,108.5c-0.1-0.3-0.2-0.7-0.3-1.1l-2-5.7h-1.4l3,7.8h1.2l3.1-7.8h-1.3l-2.1,5.7
			C186.6,107.7,186.5,108.1,186.5,108.5z"/>
		<path class="st2" d="M197.4,105.3c0-1.2-0.3-2.1-0.8-2.8c-0.6-0.7-1.4-1-2.4-1c-1,0-1.9,0.4-2.6,1.2c-0.7,0.8-1,1.8-1,3
			c0,1.3,0.3,2.3,0.9,3c0.6,0.7,1.5,1.1,2.6,1.1c1.1,0,2-0.3,2.7-0.8v-1.2c-0.7,0.6-1.6,0.9-2.4,0.9c-0.8,0-1.4-0.2-1.9-0.7
			c-0.4-0.5-0.7-1.1-0.7-2h5.5V105.3z M191.9,104.8c0.1-0.7,0.4-1.2,0.8-1.7c0.4-0.4,0.9-0.6,1.5-0.6c0.6,0,1.1,0.2,1.4,0.6
			c0.3,0.4,0.5,1,0.5,1.7H191.9z"/>
		<path class="st2" d="M206.6,102.7v-1.1h-2v-2.3l-1.3,0.4v1.9H202v1.1h1.3v4.6c0,1.5,0.7,2.3,2.1,2.3c0.5,0,0.9-0.1,1.2-0.2v-1.1
			c-0.2,0.2-0.5,0.3-0.8,0.3c-0.4,0-0.7-0.1-0.9-0.3c-0.2-0.2-0.3-0.6-0.3-1.1v-4.4H206.6z"/>
		<path class="st2" d="M213.2,105v4.5h1.3v-4.8c0-2.1-0.9-3.2-2.7-3.2c-1.1,0-2,0.5-2.6,1.5h0v-5.1H208v11.6h1.3v-4.4
			c0-0.7,0.2-1.3,0.6-1.8c0.4-0.5,0.9-0.7,1.5-0.7C212.6,102.5,213.2,103.4,213.2,105z"/>
		<path class="st2" d="M222.8,105.3c0-1.2-0.3-2.1-0.8-2.8c-0.6-0.7-1.4-1-2.4-1c-1,0-1.9,0.4-2.6,1.2c-0.7,0.8-1,1.8-1,3
			c0,1.3,0.3,2.3,0.9,3c0.6,0.7,1.5,1.1,2.6,1.1c1.1,0,2-0.3,2.7-0.8v-1.2c-0.7,0.6-1.6,0.9-2.4,0.9c-0.8,0-1.4-0.2-1.9-0.7
			s-0.7-1.1-0.7-2h5.5V105.3z M217.3,104.8c0.1-0.7,0.4-1.2,0.8-1.7c0.4-0.4,0.9-0.6,1.5-0.6c0.6,0,1.1,0.2,1.4,0.6
			c0.3,0.4,0.5,1,0.5,1.7H217.3z"/>
		<path class="st2" d="M230.2,100.8l5.7,8.7h1.6v-11h-1.3v7.7c0,0.8,0,1.3,0.1,1.6h0c-0.1-0.1-0.2-0.4-0.4-0.7l-5.5-8.6h-1.7v11h1.3
			v-7.9c0-0.8,0-1.3-0.1-1.5h0C229.9,100.3,230.1,100.5,230.2,100.8z"/>
		<path class="st2" d="M246,102.6c-0.7-0.7-1.6-1.1-2.7-1.1c-1.2,0-2.2,0.4-2.9,1.1c-0.7,0.7-1.1,1.8-1.1,3.1c0,1.2,0.3,2.2,1,2.9
			c0.7,0.7,1.6,1.1,2.8,1.1c1.2,0,2.1-0.4,2.8-1.1c0.7-0.8,1.1-1.8,1.1-3C247,104.3,246.7,103.3,246,102.6z M245.1,107.9
			c-0.4,0.5-1.1,0.8-1.9,0.8c-0.8,0-1.4-0.3-1.9-0.8c-0.5-0.5-0.7-1.3-0.7-2.2c0-1,0.2-1.7,0.7-2.3c0.5-0.5,1.1-0.8,1.9-0.8
			c0.8,0,1.4,0.3,1.9,0.8c0.4,0.5,0.7,1.3,0.7,2.3C245.7,106.6,245.5,107.3,245.1,107.9z"/>
		<path class="st2" d="M249.9,98.3c-0.2-0.2-0.4-0.2-0.6-0.2c-0.2,0-0.4,0.1-0.6,0.2c-0.2,0.2-0.2,0.4-0.2,0.6
			c0,0.2,0.1,0.4,0.2,0.6c0.2,0.2,0.3,0.2,0.6,0.2c0.2,0,0.4-0.1,0.6-0.2c0.2-0.2,0.2-0.3,0.2-0.6C250.2,98.6,250.1,98.4,249.9,98.3
			z"/>
		<rect x="248.7" y="101.7" class="st2" width="1.3" height="7.8"/>
		<path class="st2" d="M254,108.6c-0.8,0-1.6-0.3-2.3-0.8v1.3c0.6,0.3,1.3,0.5,2.1,0.5c0.4,0,0.8,0,1.2-0.1c0.4-0.1,0.7-0.2,1-0.4
			c0.3-0.2,0.5-0.4,0.7-0.7c0.2-0.3,0.3-0.6,0.3-1c0-0.3-0.1-0.6-0.2-0.8c-0.1-0.2-0.3-0.4-0.4-0.6s-0.4-0.3-0.7-0.5
			c-0.3-0.1-0.6-0.3-0.9-0.4c-0.3-0.1-0.5-0.2-0.7-0.3c-0.2-0.1-0.4-0.2-0.5-0.3c-0.1-0.1-0.3-0.2-0.3-0.4c-0.1-0.1-0.1-0.3-0.1-0.5
			c0-0.2,0-0.3,0.1-0.4c0.1-0.1,0.2-0.3,0.3-0.3c0.1-0.1,0.3-0.2,0.5-0.2c0.2-0.1,0.4-0.1,0.6-0.1c0.8,0,1.4,0.2,2,0.6v-1.3
			c-0.5-0.2-1.1-0.4-1.8-0.4c-0.4,0-0.8,0-1.1,0.1c-0.4,0.1-0.7,0.2-1,0.4c-0.3,0.2-0.5,0.4-0.7,0.7c-0.2,0.3-0.3,0.6-0.3,1
			c0,0.3,0,0.6,0.1,0.8c0.1,0.2,0.2,0.4,0.4,0.6c0.2,0.2,0.4,0.3,0.7,0.5c0.3,0.1,0.6,0.3,0.9,0.4c0.3,0.1,0.5,0.2,0.7,0.3
			c0.2,0.1,0.4,0.2,0.6,0.3c0.2,0.1,0.3,0.2,0.4,0.4c0.1,0.1,0.1,0.3,0.1,0.5C255.6,108.3,255.1,108.6,254,108.6z"/>
		<path class="st2" d="M264.8,105.3c0-1.2-0.3-2.1-0.8-2.8c-0.6-0.7-1.4-1-2.4-1c-1,0-1.9,0.4-2.6,1.2c-0.7,0.8-1,1.8-1,3
			c0,1.3,0.3,2.3,0.9,3s1.5,1.1,2.6,1.1c1.1,0,2-0.3,2.7-0.8v-1.2c-0.7,0.6-1.6,0.9-2.4,0.9c-0.8,0-1.4-0.2-1.9-0.7
			c-0.4-0.5-0.7-1.1-0.7-2h5.5V105.3z M259.3,104.8c0.1-0.7,0.4-1.2,0.8-1.7c0.4-0.4,0.9-0.6,1.5-0.6c0.6,0,1.1,0.2,1.4,0.6
			c0.3,0.4,0.5,1,0.5,1.7H259.3z"/>
	</g>
	<path class="st2" d="M84.5,49.6l-6.2,1.8v6.4h-4.6v4.9h4.6v15.6c0,5.1,2.7,7.7,8,7.7c2,0,3.6-0.3,4.8-0.9V80
		c-0.8,0.6-1.7,0.9-2.7,0.9c-1.4,0-2.4-0.3-3-1c-0.6-0.7-0.9-1.9-0.9-3.5V62.6h6.6v-4.9h-6.6V49.6z M110.7,57.1
		c-3.9,0-6.9,1.7-8.9,5.2h-0.1V44.5h-6.3v40.8h6.3V70.4c0-2.5,0.6-4.5,1.9-6.1c1.3-1.6,2.8-2.4,4.6-2.4c3.6,0,5.5,2.7,5.5,8.2v15.1
		h6.2v-17C119.8,60.8,116.8,57.1,110.7,57.1z M135.6,85.9c3.8,0,6.6-1.7,8.5-5h0.1v4.4h6.2V57.7h-6.2v15.8c0,2.2-0.6,4-1.8,5.4
		c-1.2,1.4-2.7,2-4.6,2c-3.8,0-5.7-2.5-5.7-7.4V57.7h-6.2v16.5C125.8,82,129,85.9,135.6,85.9z M172.7,57.1c-3.9,0-6.9,1.7-8.9,5.2
		h-0.1v-4.6h-6.3v27.5h6.3V69.5c0-2.2,0.6-4,1.9-5.4c1.2-1.4,2.8-2.1,4.7-2.1c3.6,0,5.5,2.6,5.5,7.7v15.5h6.2V68.4
		c0-3.7-0.8-6.5-2.4-8.4C178,58,175.7,57.1,172.7,57.1z M197.9,85.9c4.2,0,7.3-1.8,9.3-5.3h0.1v4.7h6.2V44.5h-6.2v17.1h-0.1
		c-1.7-3-4.4-4.5-8.1-4.5c-3.8,0-6.8,1.4-9,4.1c-2.3,2.7-3.4,6.4-3.4,10.9c0,4.3,1,7.6,3.1,10.1C191.8,84.7,194.5,85.9,197.9,85.9z
		 M195.1,64.6c1.3-1.7,3.2-2.6,5.5-2.6c2,0,3.6,0.7,4.9,2c1.3,1.4,1.9,3,1.9,5v3.6c0,2.4-0.7,4.4-2,5.9c-1.3,1.6-3.1,2.4-5.2,2.4
		c-2.2,0-3.9-0.8-5.2-2.4c-1.3-1.6-1.9-3.8-1.9-6.6C193.1,68.8,193.7,66.4,195.1,64.6z M231.8,85.9c4.1,0,7.4-0.8,10-2.4v-5
		c-2.5,1.8-5.2,2.6-8.1,2.6c-2.6,0-4.7-0.7-6.2-2.1c-1.5-1.4-2.3-3.3-2.4-5.9h18.8v-2.4c0-4.3-1-7.7-3.1-10.1
		c-2.1-2.4-5-3.6-8.7-3.6c-3.8,0-6.9,1.3-9.5,4c-2.5,2.7-3.8,6.2-3.8,10.5c0,4.5,1.2,8.1,3.5,10.6C224.6,84.6,227.7,85.9,231.8,85.9
		z M227.4,63.6c1.2-1.3,2.8-2,4.6-2c1.8,0,3.3,0.6,4.3,1.9c1,1.2,1.6,3,1.6,5.2h-12.8C225.4,66.6,226.2,64.9,227.4,63.6z
		 M262.2,57.2c-1.6,0-3,0.5-4.2,1.6c-1.3,1.1-2.2,2.6-2.8,4.5H255v-5.7h-6.2v27.5h6.2V72.1c0-2.9,0.6-5.1,1.9-6.8
		c1.2-1.7,2.8-2.5,4.6-2.5c1.4,0,2.5,0.3,3.3,0.9v-5.9C264.2,57.4,263.3,57.2,262.2,57.2z"/>
</g>
</svg>
